<?xml version="1.0" encoding="UTF-8"?>
<!DOCTYPE svg PUBLIC "-//W3C//DTD SVG 1.1//EN" "http://www.w3.org/Graphics/SVG/1.1/DTD/svg11.dtd">
<!-- Creator: CorelDRAW -->
<svg xmlns="http://www.w3.org/2000/svg" xml:space="preserve" width="8.5in" height="11in" version="1.1" style="shape-rendering:geometricPrecision; text-rendering:geometricPrecision; image-rendering:optimizeQuality; fill-rule:evenodd; clip-rule:evenodd"
viewBox="0 0 8500 11000"
 xmlns:xlink="http://www.w3.org/1999/xlink"
 xmlns:xodm="http://www.corel.com/coreldraw/odm/2003"
 xmlns:x="ns_extend;"
 xmlns:i="ns_ai;"
 xmlns:graph="ns_graphs;">
 <defs>
  <style type="text/css">
   <![CDATA[
    .fil0 {fill:#00AFEF}
    .fil1 {fill:#00AFEF}
   ]]>
  </style>
 </defs>
 <g id="Layer_x0020_1">
  <metadata id="CorelCorpID_0Corel-Layer"/>
  <g id="_2496850845120">
   <path class="fil0" d="M4170.81 5377c17.14,-23.59 38.03,-50.89 80.65,-48.11 77.18,5.03 109.75,103.97 45.16,152.37 -42.61,31.94 -101.53,-6.37 -198.76,65.71 -38.81,28.77 -130.31,139.05 -67.65,155.45 10.01,2.62 19.43,0.2 25.54,-3.78 19.87,-12.94 23.35,-82.52 110.33,-122.72 15.55,-7.19 30.33,-12.45 49.89,-15.57 44.26,-7.05 99.15,3.49 144.59,-57.03 9,-11.99 17.7,-26.93 23.06,-42.41 7.31,-21.11 7.6,-33.63 6.89,-61.38 -1.1,-42.83 -26.95,-79.4 -58.76,-103.58 -74.11,-56.35 -187.66,-19.91 -218.59,62.08 -3.28,8.69 -4.91,18.81 -8.16,26.49 -10.95,47.98 3.19,88.73 34.29,124.6 23,-8.28 45.88,-16.93 71.02,-18.83 -41.19,-28.7 -60.9,-64.35 -39.5,-113.29z"/>
   <path class="fil1" d="M4386.7 5620.77c10.34,13.94 33.78,53.87 41.44,67.9 8.86,16.23 33.22,20.92 47.72,6.41 19.74,-19.74 -1.53,-54.56 -13.48,-74.7 -28.66,-44.67 -57.16,-70.78 -103.93,-97.7 -12.28,9.13 -21.69,17.68 -34.55,24.76 -8.8,4.85 -20.42,6.5 -30.91,17.13 31.15,4.56 51.53,11.39 93.7,56.19z"/>
  </g>
 </g>
</svg>
