<?xml version="1.0" encoding="UTF-8"?>
<!DOCTYPE svg PUBLIC "-//W3C//DTD SVG 1.1//EN" "http://www.w3.org/Graphics/SVG/1.1/DTD/svg11.dtd">
<!-- Creator: CorelDRAW -->
<svg xmlns="http://www.w3.org/2000/svg" xml:space="preserve" width="8.5in" height="11in" version="1.1" style="shape-rendering:geometricPrecision; text-rendering:geometricPrecision; image-rendering:optimizeQuality; fill-rule:evenodd; clip-rule:evenodd"
viewBox="0 0 8500 11000"
 xmlns:xlink="http://www.w3.org/1999/xlink"
 xmlns:xodm="http://www.corel.com/coreldraw/odm/2003"
 data-name="Layer 1">
 <defs>
  <style type="text/css">
   <![CDATA[
    .str0 {stroke:#373435;stroke-width:6.94;stroke-miterlimit:2.61313}
    .fil2 {fill:none}
    .fil1 {fill:#FEFEFE}
    .fil7 {fill:#D2D3D5}
    .fil0 {fill:#003781}
    .fil9 {fill:#003781}
    .fil5 {fill:#00357E;fill-rule:nonzero}
    .fil3 {fill:#003781;fill-rule:nonzero}
    .fil8 {fill:#003781;fill-rule:nonzero}
    .fil6 {fill:#0058D1;fill-rule:nonzero}
    .fil4 {fill:#0066F3;fill-rule:nonzero}
   ]]>
  </style>
    <clipPath id="id0" style="clip-rule:nonzero">
     <path d="M3631.4 9568.13l14.58 -5.31 -13.44 4.9 -1.15 0.41zm26.46 -9.9l-3.85 1.56c5.52,-2.19 11.15,-4.58 16.67,-7.08 -4.17,1.87 -8.54,3.85 -12.81,5.52zm-49.89 17.08c4.48,-1.25 9.69,-2.71 13.65,-4.17l-10.94 3.44 -2.71 0.73zm-70.63 12.61c5.26,-0.22 10.52,-0.76 15.72,-1.57l-10.42 1.25 -5.31 0.32zm48.23 -6.87l13.02 -3.23 -6.46 1.56 -6.56 1.67zm94.27 -32.29c5.52,-2.5 11.04,-5.21 16.35,-8.02l-14.17 6.98 -2.19 1.04zm1527.71 -1534.69l-6.77 -2.08 3.13 1.04 3.65 1.04zm529.06 -105.21l4.58 -5.63 -4.58 5.63zm-184.27 105.31l8.23 -2.4 -8.23 2.4zm42.5 -14.17l3.65 -1.25 -3.65 1.25zm-143.54 33.02l-7.6 0.83 4.58 0 3.02 -0.83zm186.88 -51.25l5.42 -2.71 -5.42 2.71zm-19.9 9.27l5 -2.29 -5 2.29zm137.4 -108.54c-1.77,3.02 -3.75,5.94 -5.83,8.96 0.94,-1.35 1.77,-2.71 2.6,-4.06 0.83,-1.35 2.19,-3.02 3.23,-4.9l0 0zm3.96 -6.98c0,-1.25 1.35,-2.5 1.87,-3.65 -1.35,2.71 -2.92,5.52 -4.48,8.23 0,0 0.73,-1.04 1.04,-1.67 0.31,-0.62 0.94,-1.87 1.56,-2.92zm-58.33 66.67c-3.13,2.5 -6.46,4.9 -9.69,7.29l5.94 -4.37 3.75 -2.92zm-864.69 -544.69c-0.83,-1.77 -1.35,-3.44 -2.08,-5.21 1.04,1.98 1.04,3.44 2.08,5.21zm852.39 554.27c-3.33,2.5 -6.98,4.9 -10.42,7.29l6.25 -4.27c1.35,-1.15 2.81,-2.08 4.17,-3.02zm-847.39 -543.44c-0.9,-1.68 -1.7,-3.43 -2.4,-5.21 0.69,1.78 1.5,3.53 2.4,5.2l0 0zm829.48 555.1l4.9 -2.92c-4.58,2.92 -9.69,5.83 -14.06,8.65l4.9 -2.92 4.27 -2.81zm98.44 -110.1c0.2,-1.06 0.56,-2.07 1.04,-3.03 -0.83,2.6 -1.87,5.21 -2.92,7.81l1.04 -2.29 0.83 -2.49zm-264.59 171.77l-8.02 1.56 2.19 -0 5.83 -1.56zm72.61 -18.65l-7.19 2.4 4.17 -1.35 3.02 -1.04zm188.96 -145.31c-1.15,2.81 -2.4,5.42 -3.75,8.02 0.85,-1.5 1.59,-3.07 2.19,-4.69 0.73,-1.46 1.15,-2.19 1.56,-3.33l0 0zm10.83 -43.75c0,2.5 -0.63,5 -0.83,7.4l0 -4.79 0.83 -2.61zm-32.29 81.25l4.17 -5.73 -4.17 5.73zm30.31 -66.87l0.63 -2.81c-0.22,2.58 -0.74,5.13 -1.56,7.6 0.16,-0.92 0.41,-1.83 0.73,-2.71l0.2 -2.08zm-1.46 7.71c-0.63,2.6 -1.35,5.21 -2.19,7.71 0.25,-1.72 0.71,-3.4 1.36,-5l0.83 -2.7zm-2.4 -188.85c0.3,-1.67 0.76,-3.31 1.35,-4.9l0.94 -2.92c-0.73,2.6 -1.46,5.21 -2.29,7.81l0 0.01zm-783.75 2.39c-0.52,-1.67 -1.04,-3.54 -1.67,-5.31 0.63,1.67 1.15,3.54 1.67,5.31zm780.83 6.15l0.83 -2.5c0.2,-1.05 0.56,-2.07 1.04,-3.02 -0.53,1.87 -1.16,3.72 -1.88,5.52zm5.83 -19.69c0.15,-0.93 0.39,-1.84 0.73,-2.71l-0 -4.89c0,0.08 0,0.17 0,0.25 0,2.46 -0.25,4.94 -0.73,7.35l0 0zm-883.23 -169.48l-4.69 -4.37 4.69 4.37zm885.31 158.33l0 -7.5c0.07,1.24 0.11,2.5 0.11,3.74 0,1.25 -0.04,2.51 -0.11,3.75l0 0.01zm-63.85 304.69l-8.85 7.4 5.42 -4.48 3.44 -2.92zm-465.83 90.52l-6.35 -1.46 5 1.15 1.35 0.31zm-89.58 -26.04l-4.48 -1.87 2.29 1.04 2.19 0.83zm728.85 92.92c1.15,1.56 2.19,3.33 3.33,5 -1.15,-1.67 -1.77,-3.23 -3.33,-5zm-1005.41 -630.11l-4.48 -4.58c1.59,1.41 3.1,2.96 4.48,4.58l0 0zm155.41 462.61c-1.56,-1.46 -3.02,-3.02 -4.48,-4.58 1.38,1.61 2.89,3.16 4.48,4.58l-0 0zm707.81 -23.13l-2.19 2.81c0.65,-1 1.38,-1.95 2.19,-2.81l0 0zm-24.58 27.08l3.75 -3.65c-2.6,2.6 -5.31,5.1 -8.02,7.6l2.19 -1.98 2.08 -1.98zm12.08 -11.77l1.35 -1.46c-1.77,1.98 -3.65,3.75 -5.31,5.63l0.94 -1.04 3.02 -3.13zm-883.85 -496.15l-2.92 -5.1 2.92 5.1zm23.44 31.15c-1.46,-1.56 -2.71,-3.23 -4.06,-4.79 1.26,1.66 2.63,3.28 4.07,4.79l-0 0zm-16.46 -20.52zm7.81 10.42l-3.75 -4.9 3.75 4.9z"/>
    </clipPath>
    <clipPath id="id1" style="clip-rule:nonzero">
     <path d="M3836.92 8113.02c2.19,0.83 4.37,1.87 6.46,2.92l4.79 2.19c5.94,2.81 11.77,5.63 17.5,8.85l1.15 0.63 -658.13 -382.4c-6.04,-3.54 -12.29,-6.56 -18.54,-9.69l-4.9 -2.19 -7.4 -3.13 656.98 381.87 2.09 0.94z"/>
    </clipPath>
    <clipPath id="id2" style="clip-rule:nonzero">
     <path d="M3836.92 8113.02c2.19,0.83 4.37,1.87 6.46,2.92l4.79 2.19c5.94,2.81 11.77,5.63 17.5,8.85l1.15 0.63 -658.13 -382.4c-6.04,-3.54 -12.29,-6.56 -18.54,-9.69l-4.9 -2.19 -7.4 -3.13 656.98 381.87 2.09 0.94z"/>
    </clipPath>
 </defs>
 <g id="Layer_x0020_1">
  <metadata id="CorelCorpID_0Corel-Layer"/>
  <path class="fil0" d="M4547.54 7654.27c72,0 130.81,28.57 134.42,64.52l0.78 -0.76c0,193.37 0,386.74 0,580.1 -98.99,412.55 -336.44,471.28 -611.56,433.75 0,-86.42 0,-172.85 0,-259.27 155.73,45.92 268.3,-11.63 338.57,-172.31 1.07,-192.67 2.13,-385.34 3.2,-578.01 0,-37.57 60.26,-68.02 134.59,-68.02z"/>
  <ellipse class="fil1 str0" cx="4539.79" cy="7714.99" rx="51.2" ry="34.81"/>
  <polygon class="fil2" points="4488.28,1552.4 4488.69,1553.03 4488.8,1552.4 "/>
  <g>
   <g style="clip-path:url(#id0)">
    <image x="3537.34" y="7392.3" width="2352.08" height="2195.63" xlink:href="emergency_Images\emergency_ImgID1.png"/>
   </g>
  </g>
  <path class="fil3" d="M4493.48 5831.05l-1.67 692.5 -3.23 1115.52 0 71.77c0.84,9.45 6.74,17.7 15.41,21.56 2.56,1.46 5.26,2.72 8.02,3.75l0.62 0c2.36,0.84 4.77,1.59 7.19,2.19l1.56 0c2.71,0.63 5.52,1.04 8.44,1.46l20.83 0c2.15,-0.16 4.29,-0.55 6.36,-1.15 1.75,-0.3 3.5,-0.73 5.2,-1.25l5 -1.56 1.98 -0.73c2.52,-0.97 4.98,-2.17 7.3,-3.55 1.14,-0.63 2.22,-1.36 3.23,-2.19l3.65 -2.71c1.54,-1.37 2.95,-2.91 4.17,-4.58l0 -0.94c1.06,-1.47 1.9,-3.09 2.5,-4.8 0.52,-1.73 0.83,-3.52 0.94,-5.31l0 -72.92 3.13 -1108.33 3.23 -697.92c-34.37,-0.73 -69.17,-0.94 -103.85,-0.83l-0 0.01z"/>
  <path class="fil4" d="M4503.38 1351.88l6.35 -86.25c0.48,-5.87 4.17,-11 9.58,-13.33 7.1,-3.59 14.96,-5.47 22.92,-5.47 7.96,0 15.82,1.88 22.91,5.47 5.52,2.44 9.24,7.73 9.69,13.75l6.25 88.44c48.65,-125 140.83,-224.58 275,-269.79l3.54 0c-46.98,-4.69 -92.6,-8.02 -136.35,-9.69l-0.94 0 -19.27 -0.73c-24.58,-1.15 -49.58,-2.19 -75.1,-2.92l-87.29 0c-88.13,0 -176.67,3.65 -265.63,10.94 -14.27,0.94 -29.69,2.19 -45.42,3.75 133.13,43.54 224.79,141.56 273.75,265.83l0 -0zm-15.11 201.04l2.81 -38.54c-190.21,-110.73 -1152.19,-212.71 -1720,76.25l-12.81 8.33c-68.81,42.96 -136.28,90 -200.13,139.83 -11.87,9.06 -23.33,18.02 -34.06,26.77 -60.63,45.21 -131.98,105.94 -195.31,163.75 -80.89,73.28 -157.69,151.52 -229.83,232.99 -28.02,30.31 -57.81,64.69 -86.67,101.15 -14.69,17.5 -28.96,34.69 -41.67,51.15l-8.33 10.42 -11.98 16.35 -2.4 2.71 -2.19 3.02c-42.81,55.52 -90.42,120.83 -139.9,195.63 -39.27,57.81 -81.77,127.92 -121.56,198.75l-9.69 17.71c-5.83,10.42 -11.67,20.83 -17.4,31.25 -21.46,38.54 -37.92,70.31 -56.15,108.85 -40.21,81.67 -78.96,169.06 -114.58,262.4 -2.6,6.56 -5.1,13.44 -7.71,20.1 -0.73,2.19 -1.56,4.17 -2.4,6.25 -4.58,11.56 -9.58,23.65 -13.85,36.15 -20.83,55.83 -35.42,100.21 -56.87,172.29l-0.73 2.4 -0.63 1.77c-1.87,6.35 -3.85,13.02 -5.73,19.79l-2.4 7.6 0 2.19c-0.83,2.81 -1.67,5.73 -2.4,8.65 -21.56,72.92 -40.42,145.83 -53.85,211.98 -2.55,11.46 -5.09,23.35 -7.23,34.85 -5,24.37 -9.58,51.15 -14.69,78.85 -10.42,56.98 -20.83,117.29 -26.04,167.29 -6.35,43.23 -11.25,91.87 -14.9,142.19l0 2.4c-4.69,39.27 -6.67,85.21 -7.92,131.25 72.92,149.06 122.81,322.92 138.54,688.44 395.94,-2201.04 1722.08,-2935 3080.63,-3343.23l0.02 0.02zm103.54 -39.69l2.81 39.9c1221.67,367.81 2416.67,999.37 2933.23,2725.1l0 -1291.67c-16.46,-35.52 -34.17,-72.08 -52.08,-108.23 -3.13,-6.46 -6.04,-12.81 -9.69,-19.27l0 -0.63c-52.08,-111.67 -138.54,-252.19 -208.33,-353.23 -7.6,-10.42 -15.52,-22.08 -23.75,-33.44 -36.87,-52.92 -74.17,-104.17 -108.54,-147.19l-7.5 -9.58 -0.83 -1.15 0 -0.73c-39.48,-52.08 -96.35,-116.98 -142.5,-167.81l0 -0.63 -0.73 -0.63 -7.81 -8.75 -1.04 -1.04c-76.86,-84.44 -158.63,-165.43 -243.92,-240.94 -46.15,-40.73 -95,-80.94 -137.19,-112.92l-10.42 -7.81c-32.08,-25.42 -65,-50.83 -93.75,-71.77l-6.46 -4.58 -36.67 -25.83c-35.42,-25.73 -67.5,-47.4 -106.04,-72.19 -567.4,-299.27 -1545.63,-196.77 -1738.96,-85l0.18 0z"/>
  <path class="fil3" d="M4491.82 1513.55l11.77 -161.67c-49.17,-124.28 -140.83,-222.3 -274.38,-267.5 -32.29,3.02 -66.04,7.08 -93.75,10.42 -33.13,3.54 -69.9,8.96 -107.81,15.42 -13.33,2.08 -26.25,4.06 -38.54,6.25l-3.75 -0c-47.19,7.19 -109.58,20.1 -156.25,31.25 -7.19,1.46 -14.79,3.23 -22.5,4.9 -25,5.63 -52.6,12.81 -79.37,19.27 -19.27,4.9 -37.08,9.69 -53.75,14.17l-1.14 0c-72.23,18.63 -144.18,41.43 -213.96,67.5 -41.67,14.58 -85.94,32.08 -121.87,46.04 -44.69,17.29 -100,40.94 -148.75,63.23 -17.08,7.71 -34.17,15.63 -51.04,23.65 -71.64,32.89 -142.47,69.9 -210.41,109.79l-9.06 5.31c-11.35,6.56 -22.81,13.13 -33.96,19.79 -37.71,22.08 -77.71,46.04 -111.35,67.5 567.5,-288.33 1529.37,-186.04 1719.9,-75.31zm88.85 -159.17l11.15 158.85c193.33,-111.77 1171.56,-214.27 1736.46,85.21 -35.52,-23.33 -70.63,-45.52 -102.4,-63.85l-12.5 -7.6c-65.31,-38.96 -139.17,-79.48 -216.87,-117.71l-10.42 -5.1 -3.13 -1.46 -20.83 -9.69c-41.67,-20.31 -84.79,-40.31 -121.67,-55.63l-0.62 0c-20.83,-9.17 -44.58,-19.27 -68.96,-28.85 -77.08,-31.25 -152.92,-59.27 -223.65,-81.77 -20.83,-7.4 -43.02,-14.37 -65.1,-20.83 -40.83,-12.71 -88.23,-25.52 -128.96,-35.42 -9.06,-2.19 -17.92,-4.48 -26.04,-6.25l-11.04 -2.4c-45.73,-10.42 -100.83,-24.27 -144.48,-31.25l-11.04 -2.08c-48.61,-9.37 -100.69,-18.05 -156.25,-26.04 -26.56,-3.96 -56.77,-8.02 -85.52,-11.25 -20.14,-2.43 -39.93,-4.55 -59.38,-6.35l-3.02 0c-134.9,45 -226.98,144.48 -275.73,269.48l0 -0zm-70.83 229.17l-5.73 -2.81c-8.87,-3.97 -14.93,-12.41 -15.84,-22.09l0 -6.25c-1358.54,408.75 -2684.69,1142.71 -3082.19,3344.48 637.19,110.94 1169.27,543.13 1645.83,1146.77 219.07,-3291.15 972.09,-4120.52 1457.92,-4460.1zm84.79 -30.63l0 9.48 -0.63 1.87 0 1.04c-0.38,1.05 -0.87,2.07 -1.46,3.02 -0.59,0.95 -0.63,0.94 -0.94,1.56l-0.63 0.83 0 0.73c-1.04,1.31 -2.19,2.53 -3.44,3.64l-0.62 0c-1.73,1.54 -3.63,2.9 -5.63,4.06l-0.73 0c-2.36,1.33 -4.85,2.49 -7.4,3.44l-2.08 0.83 -2.19 0.83 -1.35 0c485.83,342.71 1235.52,1176.35 1454.48,4458.85 403.75,-539.58 879.17,-956.98 1506.77,-1114.58l0 -650.31c-517.71,-1725.73 -1712.5,-2357.29 -2934.17,-2725.31l-0 -0z"/>
  <path class="fil4" d="M4598.28 5831.78c469.79,8.44 944.37,80.21 1423.23,211.98 -219.37,-3282.5 -968.75,-4116.15 -1455.1,-4457.5l-1.67 0 -5.42 1.35 -1.98 0.52c-0.74,-0.13 -1.49,-0.19 -2.24,-0.19 -0.75,0 -1.5,0.06 -2.24,0.19l-24.06 0c-1.75,-0.11 -3.5,-0.4 -5.21,-0.83l-2.91 0 -2.71 -0.73c-1.59,-0.36 -3.17,-0.85 -4.69,-1.46l-1.35 -0 -1.98 -0.83c-486.25,338.96 -1239.58,1168.33 -1458.33,4459.48 467.52,-139.85 953.32,-211.98 1441.58,-211.98 34.69,-0.83 69.48,-0.63 104.79,0l0.3 0.01z"/>
  <path class="fil5" d="M4569.94 1585l2.08 -0.73c2.52,-1.02 5.02,-2.22 7.4,-3.54l0.72 0c2,-1.16 3.89,-2.53 5.62,-4.06l0.63 0c1.15,-1.15 2.29,-2.29 3.33,-3.54l0.63 -0.83 0 -0.83c0,-0.63 0.73,-1.04 0.94,-1.56 0.58,-0.94 1.07,-1.96 1.45,-3.01l0 -1.04 0.63 -1.87c0.06,-0.52 0.08,-1.04 0.08,-1.56 0,-0.52 -0.03,-1.05 -0.08,-1.56l0 -6.35 -2.81 -39.9 -11.04 -158.85 -6.35 -88.44c-0.61,5.27 -3.76,9.9 -8.44,12.4 -7.09,3.63 -14.95,5.54 -22.92,5.54 -7.97,0 -15.83,-1.91 -22.91,-5.55 -5.33,-2.38 -8.98,-7.43 -9.59,-13.23l-6.25 86.25 -11.87 161.67 -2.81 38.54 0 5.73c0.95,9.63 7,18.03 15.83,21.98l5.73 2.81c0.69,0.25 1.35,0.56 1.98,0.94l1.35 0 4.69 1.56 2.71 0.63 2.39 0c1.75,0.2 3.5,0.53 5.21,0.94l24.06 -0c0.26,0.02 0.53,0.03 0.79,0.03 1.29,0 2.58,-0.22 3.8,-0.65l1.87 0 5.42 -1.35 2.81 0 2.91 -0.52z"/>
  <path class="fil6" d="M4519.21 1278.86c7.1,3.59 14.96,5.47 22.92,5.47 7.96,0 15.82,-1.88 22.91,-5.47 5.63,-2.02 9.38,-7.36 9.38,-13.34 0,-5.98 -3.76,-11.31 -9.38,-13.33 -7.12,-3.59 -14.99,-5.47 -22.97,-5.47 -7.98,0 -15.85,1.88 -22.96,5.47 -5.42,2.33 -9.11,7.46 -9.59,13.33 0.61,5.86 4.3,10.94 9.69,13.33z"/>
  <g>
   <g style="clip-path:url(#id1)">
    <image x="3177.85" y="7730.21" width="688.96" height="397.4" xlink:href="emergency_Images\emergency_ImgID2.png"/>
   </g>
  </g>
  <g>
   <g style="clip-path:url(#id2)">
    <image x="3177.85" y="7730.21" width="688.96" height="397.4" xlink:href="emergency_Images\emergency_ImgID3.png"/>
   </g>
  </g>
  <circle class="fil7" cx="3381.66" cy="8442.44" r="780.04"/>
  <path class="fil8" d="M3221.56 8369.06l0 -100.84 160.22 0c42,0 74.77,-11.04 98.3,-33.31 23.54,-22.27 35.3,-53.59 35.3,-93.96 0,-44.17 -11.76,-78.21 -35.3,-102.11 -23.54,-23.9 -56.3,-35.85 -98.3,-35.85l-158.05 0 -12.85 -100.65 170.9 0c78.03,0 138.49,19.73 181.04,59.38 42.72,39.65 63.91,95.77 63.91,168.73 0,75.67 -21.18,134.33 -63.91,175.97 -42.54,41.82 -103.01,62.64 -181.04,62.64l-160.22 0zm-98.67 286.4l0 -753.11 106.09 0 0 753.11 -106.09 0zm550.35 253.04l-96.47 -186.11 71.38 -98.17 152.36 284.28 -127.27 0zm-145.48 -280.65l-169.34 -326.69 116.59 0 123.26 229.98 -70.51 96.7z"/>
  <polygon class="fil9" points="3285.51,8960.09 3404.1,8959.86 3837.73,8363.48 3723.61,8359.24 "/>
 </g>
</svg>
