<?xml version="1.0" encoding="UTF-8"?>
<!DOCTYPE svg PUBLIC "-//W3C//DTD SVG 1.1//EN" "http://www.w3.org/Graphics/SVG/1.1/DTD/svg11.dtd">
<!-- Creator: CorelDRAW -->
<svg xmlns="http://www.w3.org/2000/svg" xml:space="preserve" width="8.33333in" height="8.33333in" version="1.1" style="shape-rendering:geometricPrecision; text-rendering:geometricPrecision; image-rendering:optimizeQuality; fill-rule:evenodd; clip-rule:evenodd"
viewBox="0 0 8333.33 8333.33"
 xmlns:xlink="http://www.w3.org/1999/xlink"
 xmlns:xodm="http://www.corel.com/coreldraw/odm/2003">
 <defs>
  <style type="text/css">
   <![CDATA[
    .fil7 {fill:#02ADEC}
    .fil8 {fill:#061012}
    .fil10 {fill:#09799D}
    .fil2 {fill:#134911}
    .fil1 {fill:#159F85}
    .fil5 {fill:#52B5B0}
    .fil9 {fill:#730513}
    .fil11 {fill:#8E162E}
    .fil4 {fill:#9D3AC2}
    .fil3 {fill:#B71A1D}
    .fil6 {fill:#D3694B}
    .fil0 {fill:#F97925}
   ]]>
  </style>
 </defs>
 <g id="Layer_x0020_1">
  <metadata id="CorelCorpID_0Corel-Layer"/>
  <path class="fil0" d="M7347.51 4210.7l-36.4 36.96c-2.4,2.75 -5.27,6.74 -7.61,9.49 -40.13,47.34 -61.98,73.2 -129.1,104.17 -78.19,168.31 -598.91,417.39 -775.48,481.75 -605.49,220.7 -918.1,-35.75 -771.66,-234.3 91.03,-123.41 487.69,-40.68 777.19,-175.34 502.95,-233.98 352.2,-472.33 228.21,-486.92 -61.86,-7.29 -462.67,123.59 -466.06,125.69 -237.54,23.28 -465.7,21.26 -702.67,40.86 -94.1,7.77 -218.42,15.46 -318.21,33.57 -73.33,13.3 -212.24,76.09 -275.19,49.18l-194.86 78.79 -71.89 39.29c-12.52,84.39 -259.5,218.34 -294.99,360.36 88.12,-30.56 226.89,-208.45 454.34,-256.61 193.18,-40.88 468.39,2.5 495.26,212.22 44.7,348.87 -434.7,664.68 -604.19,817.34 108.33,15.16 260.97,158.15 691.19,203.62 411.52,43.5 369.77,-47.2 621.03,272.83 127.49,-36.2 381.15,-177.6 482.17,-241.92 295.52,-188.13 778.8,-523.72 994.2,-800.77 213.09,-274.04 221.75,-238.06 468.83,-619.7 2.7,-4.16 10.34,-16.54 13.2,-20.63l52.99 -81.9c28.89,-68.94 31.72,-63.98 62.46,-122.44 165.26,-314.31 33.57,-458.01 -165.22,-384.07 -100.15,37.25 -272.72,275.21 -349.14,374.6l-178.4 183.89z"/>
  <path class="fil1" d="M2333.58 5933.25c3.39,-49.58 23.86,-51.03 80.35,-125.04 202,-264.67 567.72,-70.01 1051.65,-290.37 52.93,-24.1 103.99,-59.39 152.44,-80.35 -39.57,-57.48 -221.77,-186.72 -350.96,-326.36 -556.25,-601.15 22.93,-920.73 567.43,-549.67l79.85 58.18c32.14,18.29 -11.85,-2.57 43,20.47 -44.35,-149.84 -244.36,-280.76 -374.05,-350.25 -63.84,-34.22 -118.71,-41.06 -170.45,-82.79 -121.61,-4.58 -303.15,-70.03 -451.69,-79.99 -175.28,-11.75 -345.89,-11.89 -518.5,-22.97 -112.27,-0.28 -223,-18.46 -337.17,-30.12l-30.89 -16.43c-126.97,-6.52 -403.06,-196.17 -501.94,-44.03 -88.75,136.57 92.46,310.25 239.78,388.26 349.92,185.29 670.69,89.92 825.2,181.27 84.49,49.94 95.65,151.61 39.87,232.04 -185.93,268.04 -818.8,33.96 -1029.04,-65.93 -153.83,-73.1 -293.88,-181.15 -402.86,-267.48l-346.55 -315.48c-51.04,-66.76 -91.84,-95.41 -144.75,-164.76 -54.07,-70.9 -83.05,-99.83 -142.15,-175.84 -277.73,-357.05 -582.51,-171.09 -322.24,268.65 240.66,406.59 390.4,612.78 717.05,945.04 292.71,297.76 883.13,723.14 1326.63,893.94z"/>
  <path class="fil2" d="M2333.58 5959.82c41.44,36.06 305.06,128.84 379.17,151.53 151.55,46.39 267.46,76.37 436.25,117.94 306.62,75.5 651.32,102.82 1003.83,102.94 362.3,0.12 663.13,-26.81 987.63,-104.67 164.31,-39.43 729.39,-188.3 825.97,-277.35 -251.26,-320.04 -209.5,-229.34 -621.03,-272.83 -430.22,-45.48 -582.86,-188.46 -691.19,-203.62 -123.63,102.7 -202.13,200.07 -301.78,335.96 -138.47,188.84 -137,255.48 -216.38,407.58 -2.48,-3.69 -4.99,-9.07 -6.38,-11.71 -100,-190.5 -53.56,-169.52 -210.61,-411.3 -60.4,-92.97 -204.35,-300.76 -301.03,-330.22 -48.45,20.96 -99.51,56.26 -152.44,80.35 -483.93,220.36 -849.66,25.7 -1051.65,290.37 -56.49,74.01 -76.96,75.46 -80.35,125.04z"/>
  <path class="fil3" d="M3427.74 3316.26l6.93 27.09c27.21,87.69 28.37,-38.7 138.96,172.63 148.59,283.97 59.11,659.25 81.26,714.67l8.22 18.27c17.6,41.71 -1.11,-12.76 14.74,36.58 56.89,46.19 -16.05,33.23 27.7,-8.32 6.16,-497.8 -150.3,-1293.91 463.93,-1292.58 241.65,0.52 438.06,178.59 451.57,421.05 15.46,277.2 1.35,609.48 -0.67,891.54l71.89 -39.29 -17.7 -18.41c-14.34,-51.06 10.56,-473.72 16.63,-515.91 22.15,-154.48 88.65,-252.7 175.35,-357.82 2.3,-2.8 5.29,-6.66 7.61,-9.47l33.73 -39.73 -2.93 -0.91c-67.07,-316.67 -231.54,-469.86 -480.74,-583.38 104.9,-118.81 258.98,-242.68 181.76,-517.31 -116.69,-414.91 -732.65,-438.33 -871.25,-14.01 -77.54,237.37 43.69,432.37 177.26,528.09 -250.17,122.46 -431.65,285.93 -484.26,587.22z"/>
  <path class="fil4" d="M2188.63 3671.65l2.3 26.57c55.68,22.63 193.85,237.92 201.19,357.57l-229.8 -20.41 -40.24 21.93c114.17,11.65 224.9,29.84 337.17,30.12 -0.57,-209.78 -22.94,-343.67 88.77,-490.76 208.85,-275.02 593.78,-233.4 755.2,36.18 96.26,160.76 68.4,334.17 74.68,535.39l39.28 12.27c-12.5,-131.89 -0.22,-288.09 2.85,-422.9l14.64 -414.26 -6.93 -27.09c-35.33,-16.76 -85.25,-63.29 -124.4,-86.69 -47,-28.07 -97.02,-40.74 -133.81,-75.35 138.91,-110.67 252.84,-284.53 178.35,-519.69 -125.31,-395.65 -688.95,-450.18 -869.17,-10.52 -94.02,229.34 52.15,428.5 174.98,530.22 -48.09,41.67 -83.1,41.93 -145.24,82.81 -146.85,96.6 -284.41,267.05 -319.81,434.63z"/>
  <path class="fil5" d="M6112.26 3611.76l4.89 49.28c78.8,47.97 43.53,289.32 52.35,384.02 135.24,-52.89 55.74,-116.83 238,-214.52 111.8,-59.94 247.65,-74.7 373.65,-31.39 98.39,33.8 214.38,141.1 245.35,203.22 74.72,149.82 48.23,231.3 65.67,410.41l98.84 -68.16c67.11,-30.97 88.97,-56.83 129.09,-104.17 2.34,-2.76 5.21,-6.74 7.61,-9.49l36.4 -36.96c52.39,-413.54 -425.33,-639.54 -451.91,-671.06 21.72,-70.28 245.69,-227.2 150.81,-526.11 -130.76,-411.94 -716.08,-421.49 -865.15,-14.8 -35.01,95.53 -33.07,244.38 7.45,334.83 51.26,114.43 122.22,135.26 161.08,206.85 -67.07,46.69 -137.26,69.83 -199.9,115.58 -28.53,-10.15 -31.09,-12.33 -54.25,-27.54z"/>
  <path class="fil6" d="M944.95 4109.5c-10.19,74.69 121.03,172.33 173.03,215.04 10.52,8.66 23.81,18.84 39.04,28.14 46.67,28.54 -0.85,11.26 58.97,28.65 7.19,-303.02 48.31,-480.08 296.08,-577.5 267.78,-105.28 494.31,55.03 579.12,237.05l30.89 16.43 40.24 -21.93c-4.6,-77.28 -6.2,-276.84 28.61,-337.16l-2.3 -26.57 -248.22 -152.14c76.13,-91.25 256.43,-220.13 174.11,-507.67 -52.57,-183.65 -204.26,-324.57 -428.62,-327.96 -216.82,-3.29 -382.02,118.48 -444.53,310.64 -102.25,314.31 146.99,472.77 169.1,528.43 -70.62,59.44 -422.56,172.67 -465.52,586.55z"/>
  <path class="fil7" d="M4904.96 3315.65l2.93 0.91c22.45,265.52 13.37,565.29 17.42,845.02 54.77,-27.82 33.07,-140.17 31.62,-219.83 -3.92,-218.84 92.91,-424.26 292.1,-497.06 297.2,-108.65 518.19,34.38 627.96,336.11 31.9,45.12 2.44,31.41 20.98,108.17 10.54,43.61 -5.53,12.23 16.8,43.85 83.78,-23.36 17.28,12.46 65.61,-59.59l136.76 -212.18 -4.89 -49.28c-2.64,-105.28 -102.07,-214.5 -163.14,-274.28 -143.98,-140.89 -202.55,-130.96 -266.32,-183.27 72.86,-86.75 274.56,-214.52 173.74,-527.52 -119.6,-371.3 -713.39,-457.55 -872.94,16.41 -76.65,227.7 60.18,407.56 184.44,511.11l-213.94 130.3c-4.46,3.05 -19,12.68 -23.2,15.4l-25.94 15.73z"/>
  <path class="fil8" d="M4692.28 4257.9l194.86 -78.79 38.17 -17.54c-4.04,-279.73 5.03,-579.49 -17.42,-845.02l-33.73 39.73c-2.31,2.81 -5.31,6.68 -7.61,9.47 -86.69,105.12 -153.19,203.34 -175.35,357.82 -6.06,42.19 -30.97,464.84 -16.63,515.91l17.7 18.41z"/>
  <path class="fil9" d="M3417.17 4180.5l12.26 9.89c107.14,20.79 161.14,81.44 248.43,95.11 -15.85,-49.34 2.85,5.13 -14.74,-36.58l-8.22 -18.27c-22.15,-55.42 67.33,-430.7 -81.26,-714.67 -110.59,-211.33 -111.76,-84.94 -138.96,-172.63l-14.64 414.26c-3.07,134.8 -15.36,291.01 -2.85,422.9z"/>
  <path class="fil10" d="M5876.99 3780.79l6.46 275.13 286.05 -10.86c-8.82,-94.7 26.45,-336.05 -52.35,-384.02l-136.76 212.18c-48.33,72.05 18.17,36.22 -65.61,59.59 -22.33,-31.63 -6.26,-0.24 -16.8,-43.85 -18.55,-76.76 10.92,-63.05 -20.98,-108.17z"/>
  <path class="fil11" d="M2162.32 4035.37l229.8 20.41c-7.33,-119.65 -145.5,-334.94 -201.19,-357.57 -34.81,60.32 -33.21,259.88 -28.61,337.16z"/>
 </g>
</svg>
